Coordinates
version=1
nRows=14
nColumns=40
inDegrees=yes

Units are S.I. units (second, meters, Newtons, ...)
Angles are in degrees.

endheader
time	pelvis_tilt	pelvis_list	pelvis_rotation	pelvis_tx	pelvis_ty	pelvis_tz	hip_flexion_r	hip_adduction_r	hip_rotation_r	knee_angle_r	knee_angle_r_beta	ankle_angle_r	subtalar_angle_r	mtp_angle_r	hip_flexion_l	hip_adduction_l	hip_rotation_l	knee_angle_l	knee_angle_l_beta	ankle_angle_l	subtalar_angle_l	mtp_angle_l	lumbar_extension	lumbar_bending	lumbar_rotation	arm_flex_r	arm_add_r	arm_rot_r	elbow_flex_r	pro_sup_r	wrist_flex_r	wrist_dev_r	arm_flex_l	arm_add_l	arm_rot_l	elbow_flex_l	pro_sup_l	wrist_flex_l	wrist_dev_l
     21.00414286	     -5.20449833	     -3.62034692	     -4.91440383	      1.00826037	      0.92998295	      0.39861734	     36.86717040	     -6.54608047	     -7.12969803	     58.63939323	     58.63939323	      1.59641323	    -12.90105073	     -0.04168185	     10.41425053	     -4.26233723	     -9.13636326	     19.50487736	     19.50487736	     16.54659276	     -4.83253105	     -3.68005361	    -11.65459913	      3.28332306	      1.58833449	      5.67443368	    -16.08453581	     -1.58494147	     36.94160952	     46.77192267	      0.00000000	      0.00000000	     16.03000950	    -19.64072475	      2.67848853	     53.28263052	     46.24765694	      0.00000000	      0.00000000
     21.01578571	     -5.17995316	     -3.45067039	     -5.00510527	      1.00734585	      0.92981380	      0.39834126	     37.35704442	     -6.49329222	     -7.04110340	     56.10639840	     56.10639840	      1.65092545	    -12.29924303	      0.05419122	      9.38748282	     -3.95028804	     -9.39970013	     18.59787342	     18.59787342	     16.72249134	     -4.39018768	     -3.87653842	    -11.84564166	      3.21782182	      1.83191123	      3.69841904	    -16.72407276	     -1.81666975	     34.74495367	     46.84112391	      0.00000000	      0.00000000	     17.59057103	    -19.82090144	      2.26165301	     54.93685381	     46.32716427	      0.00000000	      0.00000000
     21.02742857	     -5.20520332	     -3.26989683	     -5.08894402	      1.00651347	      0.92938738	      0.39826280	     37.76473508	     -6.42586718	     -6.99919472	     53.33339032	     53.33339032	      1.68029572	    -11.80255654	      0.09078487	      8.43004635	     -3.65191376	     -9.69047868	     17.71936418	     17.71936418	     16.84236821	     -3.90878031	     -4.34417479	    -11.95744856	      3.09977797	      1.96482966	      1.98138148	    -17.14157604	     -2.22309666	     32.01404783	     46.94457232	      0.00000000	      0.00000000	     19.01742407	    -20.12726063	      1.95087277	     56.82552655	     46.40183394	      0.00000000	      0.00000000
     21.03907143	     -5.29171835	     -3.13322390	     -5.12139823	      1.00580222	      0.92886781	      0.39822873	     38.00558630	     -6.31814454	     -7.09623251	     50.20308310	     50.20308310	      1.73575931	    -11.29734542	      0.29132902	      7.55139503	     -3.40338531	     -9.89811034	     16.87646261	     16.87646261	     16.97756947	     -3.42723715	     -4.64563702	    -11.95836338	      3.11259310	      1.91037710	      0.21448132	    -17.58196789	     -2.48950989	     30.11094522	     47.01630982	      0.00000000	      0.00000000	     20.23295713	    -20.38414187	      1.65290442	     58.45233808	     46.46371448	      0.00000000	      0.00000000
     21.05071429	     -5.31712976	     -2.89971014	     -5.20244109	      1.00529310	      0.92812935	      0.39852266	     38.09329189	     -6.24375963	     -7.15580124	     46.97302320	     46.97302320	      1.92920383	    -10.77855649	      0.33376167	      6.56329034	     -3.06560009	    -10.23147362	     15.96865024	     15.96865024	     17.09863734	     -2.85104701	     -5.16112321	    -12.04344388	      2.87747881	      2.11262873	     -1.57776856	    -17.89572526	     -2.89010073	     27.94422568	     47.10863934	      0.00000000	      0.00000000	     21.48742967	    -20.64300656	      1.29378652	     60.74630925	     46.54271927	      0.00000000	      0.00000000
     21.06235714	     -5.43844492	     -2.66675365	     -5.20243105	      1.00484244	      0.92712999	      0.39885398	     38.07181948	     -6.18427402	     -7.37175435	     43.43166448	     43.43166448	      1.68214274	    -10.30924080	     -0.42421340	      5.72749186	     -2.75193428	    -10.51926935	     15.08934553	     15.08934553	     16.73537786	     -2.40378954	     -6.82115728	    -12.04371598	      2.69656170	      1.35798004	     -2.18453280	    -17.68243085	     -5.02178086	     24.64480937	     47.36297713	      0.00000000	      0.00000000	     21.37519256	    -21.72448152	      0.56451848	     64.86408890	     46.70477052	      0.00000000	      0.00000000
     21.07400000	     -5.56003657	     -2.50254705	     -5.15851862	      1.00460257	      0.92615662	      0.39930314	     37.82911864	     -6.05969069	     -7.78579991	     39.71074915	     39.71074915	      1.84862385	     -9.46195840	      0.05809989	      4.88486002	     -2.50048604	    -10.62834315	     14.27703795	     14.27703795	     16.93792764	     -1.87280792	     -6.87472168	    -11.99843782	      2.60692096	      1.45208055	     -4.25155989	    -18.01199090	     -5.24560054	     23.67768855	     47.39596735	      0.00000000	      0.00000000	     22.60879806	    -21.75750185	      0.06370269	     66.42022864	     46.77988572	      0.00000000	      0.00000000
     21.08564286	     -5.52565786	     -2.11921261	     -5.16216058	      1.00466669	      0.92495203	      0.39986862	     37.44448777	     -6.11950574	     -8.06191413	     36.15497851	     36.15497851	      2.08546506	     -8.31184930	      0.55296373	      3.88415857	     -2.02053841	    -10.97224875	     13.51804903	     13.51804903	     17.21347243	     -1.12293968	     -7.17961447	    -12.07206749	      2.20889693	      1.69719240	     -6.51524256	    -18.16056711	     -5.73966068	     23.01453493	     47.43125427	      0.00000000	      0.00000000	     23.75131076	    -21.78766959	     -0.52206113	     69.08286978	     46.88450917	      0.00000000	      0.00000000
     21.09728571	     -5.56897700	     -1.90332147	     -5.05229849	      1.00491355	      0.92359262	      0.40061347	     36.86889234	     -6.00944989	     -8.61577477	     32.43817845	     32.43817845	      2.30183655	     -7.09846160	      1.29716214	      3.05114602	     -1.76549933	    -11.12295445	     12.94220352	     12.94220352	     17.51740509	     -0.47562649	     -7.42914580	    -12.05190124	      2.02356213	      1.64919924	     -8.61130874	    -18.32646631	     -6.12166131	     22.59427256	     47.45222031	      0.00000000	      0.00000000	     24.62093322	    -21.94591147	     -0.96232119	     71.32982592	     46.96785555	      0.00000000	      0.00000000
     21.10892857	     -5.50046127	     -1.60148598	     -4.93906727	      1.00546097	      0.92214550	      0.40150214	     36.16031081	     -6.00612932	     -9.26201692	     28.98875478	     28.98875478	      2.52890970	     -5.55796084	      2.35708510	      2.08300455	     -1.42758076	    -11.39041869	     12.37573492	     12.37573492	     17.86680101	      0.34580158	     -7.70135517	    -12.14885833	      1.69809790	      1.72753805	    -10.94270123	    -18.36180540	     -6.64449544	     22.58251436	     47.46038116	      0.00000000	      0.00000000	     25.37341240	    -22.05459010	     -1.46074519	     74.36602314	     47.07103308	      0.00000000	      0.00000000
     21.12057143	     -5.54806460	     -1.30668124	     -4.77411210	      1.00615159	      0.92033889	      0.40258429	     35.60264224	     -5.98982042	     -9.94236562	     25.98132186	     25.98132186	      3.20110727	     -3.86273384	      4.91345383	      1.36120281	     -1.17597053	    -11.73517257	     12.06907204	     12.06907204	     18.35866853	      1.36147869	     -7.91127980	    -12.14326757	      1.36195881	      1.25437821	    -13.36473933	    -18.27703208	     -8.09068922	     24.41718020	     47.42800377	      0.00000000	      0.00000000	     25.28088693	    -22.60987370	     -2.34902631	     78.52307022	     47.24487236	      0.00000000	      0.00000000
     21.13221429	     -5.53165219	     -1.07545820	     -4.54979896	      1.00705014	      0.91854714	      0.40383057	     34.85472010	     -5.87959995	    -10.62719371	     23.11956778	     23.11956778	      3.10428368	     -2.64336327	      5.93547856	      0.57053060	     -0.96019634	    -11.68881511	     11.77349321	     11.77349321	     18.79173211	      1.82018309	     -8.00961568	    -12.10556651	      1.07062306	      1.28079599	    -15.40519812	    -18.18813245	     -8.25808206	     23.98496141	     47.42900682	      0.00000000	      0.00000000	     26.24398042	    -22.53716411	     -2.66539349	     80.33370469	     47.31160564	      0.00000000	      0.00000000
     21.14385714	     -5.49645945	     -0.86328224	     -4.30213514	      1.00828752	      0.91667952	      0.40519304	     34.08262000	     -5.79476288	    -11.33543912	     20.73973848	     20.73973848	      3.17846322	     -1.24506191	      6.98007000	     -0.25511042	     -0.78852026	    -11.72354934	     11.49751577	     11.49751577	     19.25725304	      2.38927102	     -8.04528914	    -12.09818857	      0.88209059	      1.43953578	    -17.51104436	    -17.91970534	     -8.51261828	     23.99659809	     47.41388768	      0.00000000	      0.00000000	     27.05691834	    -22.39217849	     -2.91892412	     82.84535635	     47.38683500	      0.00000000	      0.00000000
     21.15550000	     -5.39543816	     -0.73374955	     -4.08202456	      1.00979302	      0.91486441	      0.40695361	     33.38163242	     -5.65669629	    -12.07994322	     19.08052367	     19.08052367	      3.09137285	     -0.05809605	      7.97189566	     -1.11263575	     -0.75662355	    -11.70518913	     11.37642389	     11.37642389	     19.80096993	      2.96625137	     -7.99251780	    -12.04233663	      0.61655277	      1.56569945	    -19.60589580	    -17.64087868	     -8.87599373	     24.42075180	     47.38703400	      0.00000000	      0.00000000	     27.57544473	    -22.22365358	     -3.12275131	     85.67629902	     47.46513811	      0.00000000	      0.00000000
